<?xml version="1.0" encoding="UTF-8" standalone="no"?>
<!-- Created with Inkscape (http://www.inkscape.org/) -->

<svg
   xmlns:dc="http://purl.org/dc/elements/1.1/"
   xmlns:cc="http://creativecommons.org/ns#"
   xmlns:rdf="http://www.w3.org/1999/02/22-rdf-syntax-ns#"
   xmlns:svg="http://www.w3.org/2000/svg"
   xmlns="http://www.w3.org/2000/svg"
   xmlns:sodipodi="http://sodipodi.sourceforge.net/DTD/sodipodi-0.dtd"
   xmlns:inkscape="http://www.inkscape.org/namespaces/inkscape"
   width="210mm"
   height="297mm"
   viewBox="0 0 210 297"
   version="1.1"
   id="svg8"
   inkscape:version="0.92.3 (2405546, 2018-03-11)"
   sodipodi:docname="op.svg">
  <defs
     id="defs2" />
  <sodipodi:namedview
     id="base"
     pagecolor="#ffffff"
     bordercolor="#666666"
     borderopacity="1.0"
     inkscape:pageopacity="0.0"
     inkscape:pageshadow="2"
     inkscape:zoom="0.98994949"
     inkscape:cx="629.67848"
     inkscape:cy="559.3871"
     inkscape:document-units="mm"
     inkscape:current-layer="layer1"
     showgrid="false"
     inkscape:window-width="1920"
     inkscape:window-height="987"
     inkscape:window-x="0"
     inkscape:window-y="25"
     inkscape:window-maximized="1" />
  <metadata
     id="metadata5">
    <rdf:RDF>
      <cc:Work
         rdf:about="">
        <dc:format>image/svg+xml</dc:format>
        <dc:type
           rdf:resource="http://purl.org/dc/dcmitype/StillImage" />
        <dc:title></dc:title>
      </cc:Work>
    </rdf:RDF>
  </metadata>
  <g
     inkscape:label="Layer 1"
     inkscape:groupmode="layer"
     id="layer1">
    <rect
       id="rect12"
       width="29.529385"
       height="8.6934538"
       x="121.71873"
       y="75.694939"
       style="stroke-width:0.21903072"
       ry="2.6930804" />
    <rect
       id="rect12-3"
       width="41.485664"
       height="8.6934538"
       x="108.10119"
       y="111.98066"
       style="stroke-width:0.25961325"
       ry="2.7395127" />
    <rect
       id="rect10-6"
       width="10.961308"
       height="54.806549"
       x="62.555054"
       y="92.514877"
       style="stroke-width:0.20480417;fill:#ff6600" />
    <rect
       id="rect12-3-7"
       width="43.089279"
       height="8.6934538"
       x="75.973221"
       y="158.28275"
       style="stroke-width:0.26458332;fill:#ff6600" />
    <rect
       id="rect12-3-5"
       width="16.687927"
       height="8.6934538"
       x="78.241066"
       y="75.694939"
       style="fill:#ff6600;stroke-width:0.16465656" />
    <path
       id="path86"
       sodipodi:type="arc"
       sodipodi:cx="21.969866"
       sodipodi:cy="81.506317"
       sodipodi:rx="1.0866816"
       sodipodi:ry="0.047247026"
       sodipodi:start="1.551568"
       sodipodi:end="5.2139966"
       sodipodi:open="true"
       d="m 21.99076,81.553555 a 1.0866816,0.04724703 0 0 1 -1.034345,-0.03019 1.0866816,0.04724703 0 0 1 0.297562,-0.0526 1.0866816,0.04724703 0 0 1 1.238404,-0.0059"
       style="stroke-width:0.26458332" />
    <path
       style="fill:#ff6600;stroke-width:0.03501456"
       d="m 62.541611,91.85694 c -0.03762,-1.801948 0.04801,-3.942177 0.211286,-5.280559 0.423391,-3.470613 1.520203,-5.928743 3.421174,-7.667402 2.10348,-1.923874 5.166194,-2.959373 9.438966,-3.1913 0.700917,-0.03806 2.872948,-0.04753 3.001299,-0.01311 l 0.07875,0.02111 v 4.319156 4.319155 l -0.236253,0.02259 c -0.992165,0.09484 -1.583506,0.245062 -2.213787,0.562336 -1.350441,0.679796 -2.181964,1.989573 -2.51879,3.967474 -0.127729,0.750066 -0.178722,1.462598 -0.200409,2.800425 l -0.02115,1.304815 h -5.468383 -5.468386 z"
       id="path98"
       inkscape:connector-curvature="0" />
    <path
       style="stroke-width:0.04072962;fill:#ff6600"
       d="m 80.230379,166.9278 c -1.934901,0.1096 -3.836006,0.14261 -5.278798,-0.0166 -3.741352,-0.41284 -6.682077,-1.6079 -8.606287,-3.94002 -2.129203,-2.58056 -3.332277,-6.39897 -3.707761,-11.76791 -0.06161,-0.88074 -0.135953,-3.61374 -0.102798,-3.77646 l 0.02032,-0.0999 4.640525,-0.14931 4.640514,-0.14929 1.680263,0.29311 c 0.131275,1.24528 0.164432,2.95651 0.423726,4.70755 0.235746,1.80957 1.533925,5.68387 3.668945,6.03935 0.80965,0.13482 1.576704,0.17437 3.014714,0.15541 l 1.068445,0.11513 -0.239263,1.80342 0.161643,6.88157 z"
       id="path98-3"
       inkscape:connector-curvature="0"
       sodipodi:nodetypes="cccccccccccccccc" />
    <rect
       id="rect10"
       width="10.961304"
       height="75.925972"
       x="108.1012"
       y="91.050224"
       style="stroke-width:0.24105588" />
    <path
       style="fill:#000000;stroke-width:0.03501456"
       d="m 108.10908,91.845625 c -0.0376,-1.801949 0.048,-3.942177 0.21129,-5.280559 0.42339,-3.470613 1.5202,-5.928743 3.42117,-7.667402 2.10348,-1.923874 5.1662,-2.959373 9.43897,-3.1913 0.70092,-0.03806 2.87295,-0.04753 3.0013,-0.01311 l 0.0787,0.02111 v 4.319156 4.319155 l -0.23626,0.02259 c -0.99216,0.09484 -1.5835,0.245062 -2.21378,0.562336 -1.35044,0.679796 -2.18197,1.989572 -2.51879,3.967474 -0.12773,0.750066 -0.17872,1.462598 -0.20041,2.800425 l -0.0212,1.304815 h -5.46838 -5.46839 z"
       id="path98-5"
       inkscape:connector-curvature="0" />
    <path
       style="fill:#ff6600;stroke-width:0.04086584"
       d="m 95.246077,75.682007 c 1.933866,-0.127399 3.929097,-0.03566 5.373223,0.111881 3.55585,-0.231625 8.25507,1.039949 8.64049,3.890347 -2.47632,3.295737 -2.53114,4.322001 -3.04066,8.109716 -1.69016,-3.697116 -3.17288,-3.207937 -11.290137,-3.346417 l -1.069405,-0.106472 0.223448,-1.817545 -0.221935,-6.925987 z"
       id="path98-3-6"
       inkscape:connector-curvature="0"
       sodipodi:nodetypes="ccccccccc" />
  </g>
</svg>
